<svg xmlns="http://www.w3.org/2000/svg" viewBox="0 0 96 96" role="img" aria-labelledby="title desc">
  <title id="title">Msg DB logo</title>
  <desc id="desc">A compact database cylinder with message lines.</desc>
  <defs>
    <linearGradient id="body" x1="20" x2="76" y1="18" y2="82" gradientUnits="userSpaceOnUse">
      <stop offset="0" stop-color="#2f7df6"/>
      <stop offset="1" stop-color="#17a673"/>
    </linearGradient>
  </defs>
  <rect width="96" height="96" rx="20" fill="#0f172a"/>
  <ellipse cx="48" cy="24" rx="28" ry="12" fill="#7dd3fc"/>
  <path d="M20 24v44c0 6.6 12.5 12 28 12s28-5.4 28-12V24c0 6.6-12.5 12-28 12S20 30.6 20 24Z" fill="url(#body)"/>
  <path d="M20 46c0 6.6 12.5 12 28 12s28-5.4 28-12" fill="none" stroke="#bae6fd" stroke-width="4" stroke-linecap="round"/>
  <path d="M30 31.5c5 2.8 11.3 4.5 18 4.5s13-1.7 18-4.5" fill="none" stroke="#e0f2fe" stroke-width="3" stroke-linecap="round"/>
  <path d="M33 48h30M33 60h22" fill="none" stroke="#f8fafc" stroke-width="5" stroke-linecap="round"/>
  <circle cx="66" cy="60" r="4" fill="#f8fafc"/>
</svg>
